# Unit Cube (1x1x1) centered at origin
# 8 vertices, 6 faces (12 triangles), 24 UVs, 6 normals

# Vertex positions
v -2.0 -1.5 -6.0
v  2.0 -1.5 -6.0
v  2.0  1.5 -6.0
v -2.0  1.5 -6.0
v -2.0 -1.5  2.0
v  2.0 -1.5  2.0
v  2.0  1.5  2.0
v -2.0  1.5  2.0

# Texture coordinates (UVs)
vt 0.333 0.333
vt 0.667 0.333
vt 0.667 0.0
vt 0.333 0.0

vt 0.333 0.667
vt 0.667 0.667

vt 0.0 0.667
vt 0.0 0.333

vt 0.333 1.0
vt 0.667 1.0

vt 1.0 0.667
vt 1.0 0.333


# Normals
vn 0 0 1
vn 0 0 -1
vn 1 0 0
vn -1 0 0
vn 0 1 0
vn 0 -1 0

# Faces (each face as two triangles)
# Front face (-Z)
f 1/1/1 2/2/1 3/6/1
f 1/1/1 3/6/1 4/5/1

# Left face (-X)
f 1/1/3 4/5/3 8/7/3
f 1/1/3 8/7/3 5/8/3

# Right face (+X)
f 2/2/4 6/12/4 7/11/4
f 2/2/4 7/11/4 3/6/4

# Bottom face (-Y)
f 1/1/5 5/4/5 6/3/5
f 1/1/5 6/3/5 2/2/5

# Top face (+Y)
f 4/5/6 3/6/6 7/10/6
f 4/5/6 7/10/6 8/9/6
